<svg width="125" height="32" viewBox="0 0 125 32" fill="none" xmlns="http://www.w3.org/2000/svg">
<path d="M16.7247 3.58029C17.1618 1.75167 15.7518 -8.19809e-08 13.8427 -2.30626e-07C11.9335 -3.79271e-07 10.5235 1.75167 10.9606 3.58029L13.3364 13.5191L14.3489 13.5191L16.7247 3.58029Z" fill="black"/>
<path d="M10.9472 23.6533C10.5155 25.4856 11.9295 27.2363 13.841 27.2363C15.7525 27.2363 17.1665 25.4856 16.7348 23.6533L14.3473 13.5184H13.3347L10.9472 23.6533Z" fill="black"/>
<path d="M24.1364 16.3019C25.9514 16.7106 27.6816 15.3537 27.6816 13.5217C27.6816 11.6896 25.9514 10.3327 24.1364 10.7414L13.9424 13.0369L13.9424 14.0064L24.1364 16.3019Z" fill="black"/>
<path d="M3.54776 10.7276C1.7293 10.324 -4.5449e-08 11.6846 -1.2652e-07 13.5188C-2.0759e-07 15.3531 1.7293 16.7136 3.54776 16.3101L13.9413 14.0035L13.9413 13.0341L3.54776 10.7276Z" fill="black"/>
<path d="M19.2469 22.7564C20.22 24.2527 22.3499 24.48 23.6265 23.2239C24.9031 21.9677 24.6721 19.872 23.1514 18.9145L14.1765 13.2629L13.5033 13.9254L19.2469 22.7564Z" fill="black"/>
<path d="M8.43476 4.43109C7.4616 2.9348 5.33174 2.70745 4.05513 3.96361C2.77853 5.21976 3.00957 7.31548 4.53023 8.27305L13.5051 13.9246L14.1783 13.2621L8.43476 4.43109Z" fill="black"/>
<path d="M4.5313 18.912C3.01063 19.8695 2.77959 21.9653 4.05619 23.2214C5.3328 24.4776 7.46266 24.2502 8.43582 22.7539L14.1794 13.9229L13.5062 13.2605L4.5313 18.912Z" fill="black"/>
<path d="M23.1503 8.27162C24.671 7.31405 24.9021 5.21833 23.6254 3.96218C22.3488 2.70603 20.219 2.93337 19.2458 4.42966L13.5023 13.2607L14.1755 13.9231L23.1503 8.27162Z" fill="black"/>
<mask id="mask0_1_1180" style="mask-type:alpha" maskUnits="userSpaceOnUse" x="35" y="3" width="91" height="29">
<path d="M35.9805 24.5941V3.76884H49.1681V6.32737H39.1647V12.9022H47.4558V15.431H39.1647V24.5941H35.9805Z" fill="white"/>
<path d="M51.2608 24.5941V3.17383H54.4451V24.5941H51.2608Z" fill="white"/>
<path d="M64.5365 24.9511C63.1146 24.9511 61.8329 24.6338 60.6914 23.9991C59.5699 23.3446 58.6787 22.4422 58.0178 21.2918C57.3569 20.1216 57.0265 18.763 57.0265 17.216C57.0265 15.669 57.3569 14.3203 58.0178 13.17C58.6987 11.9998 59.6099 11.0974 60.7515 10.4627C61.893 9.80817 63.1647 9.48092 64.5666 9.48092C65.9885 9.48092 67.2602 9.80817 68.3817 10.4627C69.5232 11.0974 70.4244 11.9998 71.0853 13.17C71.7662 14.3203 72.1066 15.669 72.1066 17.216C72.1066 18.763 71.7662 20.1216 71.0853 21.2918C70.4244 22.4422 69.5232 23.3446 68.3817 23.9991C67.2401 24.6338 65.9584 24.9511 64.5365 24.9511ZM64.5365 22.2438C65.2975 22.2438 65.9985 22.0554 66.6393 21.6786C67.3002 21.3017 67.8309 20.7464 68.2315 20.0126C68.632 19.2589 68.8323 18.3267 68.8323 17.216C68.8323 16.1053 68.632 15.1831 68.2315 14.4492C67.8509 13.6956 67.3302 13.1303 66.6694 12.7535C66.0285 12.3766 65.3276 12.1882 64.5666 12.1882C63.8055 12.1882 63.0946 12.3766 62.4337 12.7535C61.7929 13.1303 61.2722 13.6956 60.8716 14.4492C60.4711 15.1831 60.2708 16.1053 60.2708 17.216C60.2708 18.3267 60.4711 19.2589 60.8716 20.0126C61.2722 20.7464 61.7929 21.3017 62.4337 21.6786C63.0746 22.0554 63.7755 22.2438 64.5365 22.2438Z" fill="white"/>
<path d="M77.0565 24.5941L72.6706 9.83792H75.8549L78.7387 20.9646L81.9831 9.83792H85.5278L88.7721 20.9646L91.656 9.83792H94.8402L90.4544 24.5941H87.18L83.7554 12.9915L80.3309 24.5941H77.0565Z" fill="white"/>
<path d="M102.501 24.9511C100.618 24.9511 99.0664 24.495 97.8448 23.5826C96.6231 22.6703 95.9222 21.4604 95.742 19.9531H98.9563C99.1165 20.6274 99.497 21.2125 100.098 21.7083C100.699 22.1843 101.49 22.4223 102.471 22.4223C103.432 22.4223 104.133 22.224 104.574 21.8273C105.014 21.4307 105.235 20.9745 105.235 20.4588C105.235 19.7051 104.924 19.1994 104.303 18.9415C103.703 18.6639 102.861 18.416 101.78 18.1978C100.939 18.0193 100.098 17.7813 99.2567 17.4838C98.4356 17.1863 97.7446 16.7698 97.1839 16.2343C96.6432 15.6789 96.3728 14.9352 96.3728 14.003C96.3728 12.7138 96.8735 11.6428 97.8748 10.7899C98.8761 9.91726 100.278 9.48092 102.08 9.48092C103.743 9.48092 105.084 9.87759 106.106 10.6709C107.147 11.4643 107.758 12.5849 107.938 14.0327H104.874C104.774 13.3981 104.474 12.9022 103.973 12.5452C103.492 12.1882 102.841 12.0097 102.02 12.0097C101.219 12.0097 100.598 12.1783 100.158 12.5155C99.7173 12.8328 99.497 13.2493 99.497 13.765C99.497 14.2806 99.7974 14.6872 100.398 14.9847C101.019 15.2822 101.83 15.55 102.831 15.788C103.833 16.0062 104.754 16.264 105.595 16.5615C106.456 16.8392 107.147 17.2557 107.668 17.811C108.189 18.3664 108.449 19.1796 108.449 20.2506C108.469 21.5993 107.938 22.7199 106.857 23.6124C105.795 24.5049 104.343 24.9511 102.501 24.9511Z" fill="white"/>
<path d="M112.024 31.1392L115.599 23.3744H114.727L108.84 9.83792H112.294L116.86 20.7563L121.637 9.83792H125.001L115.388 31.1392H112.024Z" fill="white"/>
</mask>
<g mask="url(#mask0_1_1180)">
<path d="M34.0918 0.84375H132.08V32.9554H34.0918V0.84375Z" fill="black"/>
</g>
</svg>
