<svg width="27" height="26" viewBox="0 0 27 26" fill="none" xmlns="http://www.w3.org/2000/svg">
<path d="M15.8067 3.33451C16.2199 1.63142 14.8871 -7.6353e-08 13.0827 -2.14794e-07C11.2782 -3.53235e-07 9.94542 1.63142 10.3586 3.33451L12.6041 12.591L13.5612 12.591L15.8067 3.33451Z" fill="white"/>
<path d="M10.3486 22.0297C9.94066 23.7362 11.2771 25.3667 13.0838 25.3667C14.8906 25.3667 16.227 23.7362 15.819 22.0297L13.5624 12.5905H12.6053L10.3486 22.0297Z" fill="white"/>
<path d="M22.8132 15.1829C24.5286 15.5635 26.1641 14.2998 26.1641 12.5935C26.1641 10.8872 24.5286 9.62347 22.8132 10.0041L13.1779 12.1421L13.1779 13.0449L22.8132 15.1829Z" fill="white"/>
<path d="M3.35329 9.99121C1.63451 9.61536 -4.30211e-08 10.8825 -1.19761e-07 12.5909C-1.96501e-07 14.2992 1.63451 15.5664 3.35329 15.1905L13.1771 13.0423L13.1771 12.1394L3.35329 9.99121Z" fill="white"/>
<path d="M18.1937 21.1941C19.1136 22.5876 21.1267 22.7994 22.3333 21.6295C23.5399 20.4596 23.3216 18.5077 21.8843 17.6159L13.4013 12.3523L12.765 12.9693L18.1937 21.1941Z" fill="white"/>
<path d="M7.97227 4.12648C7.05245 2.73291 5.03934 2.52117 3.83271 3.69109C2.62608 4.86101 2.84446 6.81286 4.28176 7.7047L12.7647 12.9683L13.401 12.3513L7.97227 4.12648Z" fill="white"/>
<path d="M4.28579 17.6138C2.84848 18.5056 2.6301 20.4574 3.83673 21.6274C5.04336 22.7973 7.05647 22.5855 7.97629 21.192L13.405 12.9672L12.7687 12.3502L4.28579 17.6138Z" fill="white"/>
<path d="M21.8822 7.70265C23.3195 6.81082 23.5379 4.85896 22.3312 3.68904C21.1246 2.51912 19.1115 2.73086 18.1917 4.12443L12.7629 12.3492L13.3993 12.9662L21.8822 7.70265Z" fill="white"/>
</svg>
