<svg width="40" height="40" viewBox="0 0 40 40" fill="none" xmlns="http://www.w3.org/2000/svg">
<circle cx="20" cy="20" r="20" fill="white"/>
<path d="M26.6667 16.1905H28.8889C29.1836 16.1905 29.4662 16.3051 29.6746 16.5093C29.8829 16.7134 30 16.9902 30 17.2789V30.3401C30 30.6288 29.8829 30.9056 29.6746 31.1098C29.4662 31.3139 29.1836 31.4286 28.8889 31.4286H11.1111C10.8164 31.4286 10.5338 31.3139 10.3254 31.1098C10.1171 30.9056 10 30.6288 10 30.3401V17.2789C10 16.9902 10.1171 16.7134 10.3254 16.5093C10.5338 16.3051 10.8164 16.1905 11.1111 16.1905H13.3333V15.102C13.3333 13.37 14.0357 11.7089 15.286 10.4842C16.5362 9.25946 18.2319 8.57141 20 8.57141C21.7681 8.57141 23.4638 9.25946 24.714 10.4842C25.9643 11.7089 26.6667 13.37 26.6667 15.102V16.1905ZM18.8889 24.6062V27.0748H21.1111V24.6062C21.5348 24.3666 21.8659 23.9968 22.0531 23.5541C22.2403 23.1113 22.2731 22.6205 22.1465 22.1576C22.0199 21.6947 21.7409 21.2857 21.3528 20.994C20.9647 20.7023 20.4892 20.5441 20 20.5441C19.5108 20.5441 19.0353 20.7023 18.6472 20.994C18.2591 21.2857 17.9801 21.6947 17.8535 22.1576C17.7269 22.6205 17.7597 23.1113 17.9469 23.5541C18.1341 23.9968 18.4652 24.3666 18.8889 24.6062ZM24.4444 16.1905V15.102C24.4444 13.9473 23.9762 12.8399 23.1427 12.0235C22.3092 11.207 21.1787 10.7483 20 10.7483C18.8213 10.7483 17.6908 11.207 16.8573 12.0235C16.0238 12.8399 15.5556 13.9473 15.5556 15.102V16.1905H24.4444Z" fill="#09121F"/>
</svg>
