<svg width="119" height="29" viewBox="0 0 119 29" fill="none" xmlns="http://www.w3.org/2000/svg">
<path d="M15.8067 3.33451C16.2199 1.63142 14.8871 -7.6353e-08 13.0827 -2.14794e-07C11.2782 -3.53235e-07 9.94542 1.63142 10.3586 3.33451L12.6041 12.591L13.5612 12.591L15.8067 3.33451Z" fill="white"/>
<path d="M10.3486 22.0297C9.94066 23.7362 11.2771 25.3667 13.0838 25.3667C14.8906 25.3667 16.227 23.7362 15.819 22.0297L13.5624 12.5905H12.6053L10.3486 22.0297Z" fill="white"/>
<path d="M22.8132 15.1829C24.5286 15.5635 26.1641 14.2998 26.1641 12.5935C26.1641 10.8872 24.5286 9.62347 22.8132 10.0041L13.1779 12.1421L13.1779 13.0449L22.8132 15.1829Z" fill="white"/>
<path d="M3.35329 9.99121C1.63451 9.61536 -4.30211e-08 10.8825 -1.19761e-07 12.5909C-1.96501e-07 14.2992 1.63451 15.5664 3.35329 15.1905L13.1771 13.0423L13.1771 12.1394L3.35329 9.99121Z" fill="white"/>
<path d="M18.1937 21.1941C19.1136 22.5876 21.1267 22.7994 22.3333 21.6295C23.5399 20.4596 23.3216 18.5077 21.8843 17.6159L13.4013 12.3523L12.765 12.9693L18.1937 21.1941Z" fill="white"/>
<path d="M7.97227 4.12648C7.05245 2.73291 5.03934 2.52117 3.83271 3.69109C2.62608 4.86101 2.84446 6.81286 4.28176 7.7047L12.7647 12.9683L13.401 12.3513L7.97227 4.12648Z" fill="white"/>
<path d="M4.28579 17.6138C2.84848 18.5056 2.6301 20.4574 3.83673 21.6274C5.04336 22.7973 7.05647 22.5855 7.97629 21.192L13.405 12.9672L12.7687 12.3502L4.28579 17.6138Z" fill="white"/>
<path d="M21.8822 7.70265C23.3195 6.81082 23.5379 4.85896 22.3312 3.68904C21.1246 2.51912 19.1115 2.73086 18.1917 4.12443L12.7629 12.3492L13.3993 12.9662L21.8822 7.70265Z" fill="white"/>
<mask id="mask0_1_2541" style="mask-type:alpha" maskUnits="userSpaceOnUse" x="34" y="2" width="85" height="27">
<path d="M34.0078 22.9034V3.50777H46.4726V5.89067H37.0175V12.0142H44.8541V14.3693H37.0175V22.9034H34.0078Z" fill="white"/>
<path d="M48.4506 22.9034V2.95361H51.4603V22.9034H48.4506Z" fill="white"/>
<path d="M60.9986 23.2359C59.6546 23.2359 58.4432 22.9404 57.3642 22.3493C56.3042 21.7397 55.4619 20.8992 54.8372 19.8278C54.2125 18.738 53.9002 17.4727 53.9002 16.0318C53.9002 14.591 54.2125 13.3349 54.8372 12.2635C55.4808 11.1737 56.3421 10.3332 57.421 9.7421C58.5 9.13252 59.702 8.82773 61.027 8.82773C62.3709 8.82773 63.5729 9.13252 64.633 9.7421C65.7119 10.3332 66.5637 11.1737 67.1884 12.2635C67.832 13.3349 68.1538 14.591 68.1538 16.0318C68.1538 17.4727 67.832 18.738 67.1884 19.8278C66.5637 20.8992 65.7119 21.7397 64.633 22.3493C63.554 22.9404 62.3426 23.2359 60.9986 23.2359ZM60.9986 20.7145C61.7179 20.7145 62.3804 20.539 62.9861 20.188C63.6108 19.8371 64.1124 19.3199 64.491 18.6364C64.8696 17.9345 65.0589 17.0663 65.0589 16.0318C65.0589 14.9974 64.8696 14.1384 64.491 13.455C64.1313 12.753 63.6392 12.2266 63.0145 11.8756C62.4088 11.5246 61.7463 11.3492 61.027 11.3492C60.3077 11.3492 59.6357 11.5246 59.011 11.8756C58.4053 12.2266 57.9132 12.753 57.5346 13.455C57.156 14.1384 56.9667 14.9974 56.9667 16.0318C56.9667 17.0663 57.156 17.9345 57.5346 18.6364C57.9132 19.3199 58.4053 19.8371 59.011 20.188C59.6168 20.539 60.2793 20.7145 60.9986 20.7145Z" fill="white"/>
<path d="M72.8323 22.9034L68.6868 9.16023H71.6966L74.4223 19.5231L77.4888 9.16023H80.8393L83.9058 19.5231L86.6315 9.16023H89.6412L85.4958 22.9034H82.4009L79.164 12.0973L75.9272 22.9034H72.8323Z" fill="white"/>
<path d="M96.8821 23.2359C95.1027 23.2359 93.6357 22.8111 92.4811 21.9614C91.3264 21.1116 90.6639 19.9849 90.4935 18.581H93.5316C93.6831 19.209 94.0427 19.754 94.6106 20.2158C95.1785 20.6591 95.9262 20.8807 96.8537 20.8807C97.7623 20.8807 98.4248 20.696 98.8412 20.3266C99.2577 19.9571 99.4659 19.5323 99.4659 19.052C99.4659 18.3501 99.1725 17.879 98.5857 17.6389C98.0178 17.3803 97.2228 17.1494 96.2006 16.9462C95.4056 16.78 94.6106 16.5583 93.8156 16.2812C93.0395 16.0041 92.3864 15.6162 91.8564 15.1175C91.3453 14.6002 91.0898 13.9075 91.0898 13.0394C91.0898 11.8387 91.563 10.8412 92.5095 10.0469C93.4559 9.23411 94.781 8.82773 96.4846 8.82773C98.0557 8.82773 99.3239 9.19717 100.289 9.93605C101.274 10.6749 101.851 11.7186 102.021 13.0671H99.1252C99.0305 12.476 98.7466 12.0142 98.2734 11.6817C97.8191 11.3492 97.2039 11.1829 96.4278 11.1829C95.6706 11.1829 95.0838 11.3399 94.6674 11.654C94.2509 11.9495 94.0427 12.3374 94.0427 12.8177C94.0427 13.298 94.3267 13.6766 94.8945 13.9537C95.4813 14.2308 96.248 14.4802 97.1944 14.7018C98.1409 14.905 99.0116 15.1452 99.8066 15.4223C100.621 15.6809 101.274 16.0688 101.766 16.586C102.258 17.1032 102.504 17.8606 102.504 18.8581C102.523 20.1142 102.021 21.1578 100.999 21.9891C99.9959 22.8203 98.6235 23.2359 96.8821 23.2359Z" fill="white"/>
<path d="M105.883 28.9992L109.262 21.7674H108.438L102.873 9.16023H106.138L110.454 19.3291L114.969 9.16023H118.149L109.063 28.9992H105.883Z" fill="white"/>
</mask>
<g mask="url(#mask0_1_2541)">
<path d="M32.2227 0.784668H124.84V30.6919H32.2227V0.784668Z" fill="white"/>
</g>
</svg>
