<svg width="53" height="54" viewBox="0 0 53 54" fill="none" xmlns="http://www.w3.org/2000/svg">
<path d="M53 26.9844C53 41.6199 41.1355 53.4844 26.5 53.4844C11.8645 53.4844 0 41.6199 0 26.9844C0 12.3488 11.8645 0.484375 26.5 0.484375C41.1355 0.484375 53 12.3488 53 26.9844Z" fill="#1B1B1B"/>
<path d="M23.5072 18.4844L24.6819 20.0122C22.0458 22.4196 20.68 24.8825 20.5845 27.401C21.425 27.401 22.1605 27.5677 22.7908 27.901C24.1662 28.6233 24.8539 29.7344 24.8539 31.2344C24.8539 31.9751 24.6628 32.6788 24.2808 33.3455C23.4594 34.7714 22.2178 35.4844 20.5559 35.4844C19.3333 35.4844 18.2923 35.0677 17.4327 34.2344C16.4776 33.3084 16 32.0677 16 30.5122C16 28.5862 16.5444 26.6233 17.6332 24.6233C18.9131 22.2159 20.8711 20.1696 23.5072 18.4844ZM34.6533 18.4844L35.8281 20.0122C33.192 22.4196 31.8262 24.8825 31.7307 27.401C32.5712 27.401 33.3066 27.5677 33.937 27.901C35.3123 28.6233 36 29.7344 36 31.2344C36 31.9751 35.809 32.6788 35.4269 33.3455C34.6055 34.7714 33.3639 35.4844 31.702 35.4844C30.4795 35.4844 29.4384 35.0677 28.5788 34.2344C27.6237 33.3084 27.1461 32.0677 27.1461 30.5122C27.1461 28.5862 27.6905 26.6233 28.7794 24.6233C30.0592 22.2159 32.0172 20.1696 34.6533 18.4844Z" fill="white"/>
</svg>
